<?xml version="1.0" encoding="UTF-8"?>
<svg xmlns="http://www.w3.org/2000/svg" xmlns:xlink="http://www.w3.org/1999/xlink" viewBox="0 0 64 64" width="64px" height="64px">
<g id="surface12338460">
<path style=" stroke:none;fill-rule:nonzero;fill:rgb(100%,60.000002%,0%);fill-opacity:1;" d="M 0 20 L 0 42 L 18 42 L 18 46 L 32 46 L 32 42 L 64 42 L 64 20 Z M 3.554688 23.554688 L 17.78125 23.554688 L 17.78125 38.890625 L 14.222656 38.890625 L 14.222656 27.113281 L 10.667969 27.113281 L 10.667969 38.890625 L 3.554688 38.890625 Z M 21.335938 23.554688 L 35.558594 23.554688 L 35.558594 38.886719 L 28.445312 38.886719 L 28.445312 42.445312 L 21.335938 42.445312 Z M 39.113281 23.554688 L 60.449219 23.554688 L 60.449219 38.890625 L 56.890625 38.890625 L 56.890625 27.113281 L 53.335938 27.113281 L 53.335938 38.890625 L 49.78125 38.890625 L 49.78125 27.113281 L 46.222656 27.113281 L 46.222656 38.890625 L 39.113281 38.890625 Z M 28.445312 27.113281 L 28.445312 35.335938 L 32 35.335938 L 32 27.113281 Z M 28.445312 27.113281 "/>
</g>
</svg>
