<?xml version="1.0" encoding="UTF-8"?>
<svg xmlns="http://www.w3.org/2000/svg" xmlns:xlink="http://www.w3.org/1999/xlink" viewBox="0 0 50 50" width="50px" height="50px">
<g id="surface20628744">
<path style=" stroke:none;fill-rule:nonzero;fill:rgb(100%,60.000002%,0%);fill-opacity:1;" d="M 48.890625 7.601562 C 48.769531 7.371094 48.550781 7.191406 48.300781 7.109375 L 46.238281 6.460938 C 45.75 6.308594 45.21875 6.601562 45.019531 7.070312 C 45.019531 7.070312 44.980469 7.078125 44.878906 7.078125 C 44.539062 7.078125 43.96875 6.421875 43.710938 5.949219 C 43.628906 5.800781 43.511719 5.679688 43.371094 5.578125 C 42.140625 4.808594 38.828125 3 34.578125 3 C 29.269531 3 25.75 4.519531 25.601562 4.578125 C 25.171875 4.769531 24.921875 5.238281 25.019531 5.710938 C 25.121094 6.171875 25.53125 6.5 26 6.5 C 30.21875 6.5 31.449219 7.179688 32.851562 8.21875 C 33.109375 8.410156 33.429688 8.71875 33.710938 9.128906 L 1.859375 14.039062 L 6.871094 47.148438 L 23.050781 44.570312 C 23.109375 44.808594 23.191406 45.058594 23.300781 45.289062 C 23.71875 46.179688 24.511719 46.859375 25.460938 47.160156 L 27.460938 47.769531 C 27.941406 47.921875 28.410156 47.988281 28.859375 47.988281 C 29.429688 47.988281 29.960938 47.871094 30.421875 47.609375 C 31.140625 47.21875 31.648438 46.53125 31.878906 45.660156 C 31.898438 45.621094 32.199219 44.601562 32.660156 43.039062 L 47.140625 40.730469 L 42.628906 12.21875 C 42.699219 12.191406 42.769531 12.160156 42.828125 12.160156 L 42.839844 12.160156 C 43.128906 12.160156 43.21875 12.210938 43.21875 12.210938 C 43.269531 12.25 43.308594 12.28125 43.339844 12.308594 C 43.328125 12.75 43.609375 13.148438 44.039062 13.289062 L 46.101562 13.949219 C 46.621094 14.109375 47.191406 13.820312 47.359375 13.300781 L 48.949219 8.371094 C 49.03125 8.121094 49.011719 7.839844 48.890625 7.601562 Z M 22.921875 17.058594 L 23.769531 16.351562 C 24.25 15.949219 24.949219 16.011719 25.359375 16.46875 L 29.410156 21.121094 L 31.808594 23.769531 L 30.308594 27.109375 L 22.789062 18.589844 C 22.390625 18.140625 22.449219 17.449219 22.921875 17.058594 Z M 19.660156 20.109375 C 19.898438 19.550781 20.550781 19.28125 21.121094 19.511719 L 22.171875 19.921875 C 22.738281 20.148438 23.011719 20.78125 22.78125 21.339844 L 22.171875 22.808594 L 19.058594 21.570312 Z M 10.601562 27.46875 L 15.691406 26.679688 L 14.210938 30.21875 L 11.109375 30.699219 Z M 16.789062 35.429688 L 13.320312 39.46875 L 13.808594 34.21875 L 13.839844 34.03125 L 14.019531 34.089844 L 16.910156 35.25 C 16.878906 35.308594 16.851562 35.378906 16.789062 35.429688 Z M 14.25 33.011719 L 18.628906 22.570312 L 21.738281 23.820312 L 17.351562 34.238281 Z M 20.671875 29.230469 L 22.171875 25.691406 L 26.808594 24.980469 L 29.371094 27.898438 Z M 37.648438 34.238281 C 37.648438 34.238281 37.238281 33 35.089844 32.339844 C 34.988281 32.308594 34.890625 32.28125 34.800781 32.238281 L 36 28.410156 C 36.738281 28.75 38.199219 29.671875 38.199219 31.730469 C 38.199219 33.488281 37.648438 34.238281 37.648438 34.238281 Z M 36.5 26.75 L 37.511719 23.28125 L 37.570312 23.269531 L 38.109375 26.5 Z M 45.761719 11.738281 L 45.269531 11.578125 C 45.078125 11.109375 44.691406 10.808594 44.421875 10.609375 C 44.03125 10.320312 43.53125 10.171875 42.878906 10.160156 L 42.828125 10.160156 C 39.96875 10.160156 38.601562 15.109375 36.328125 23.269531 C 35.96875 24.53125 35.609375 25.859375 35.210938 27.21875 C 33.738281 32.351562 30 44.960938 29.960938 45.109375 C 29.859375 45.480469 29.691406 45.730469 29.460938 45.859375 C 29.128906 46.039062 28.628906 46.039062 28.039062 45.859375 L 26.050781 45.25 C 25.628906 45.121094 25.289062 44.820312 25.101562 44.421875 C 24.910156 44.03125 24.898438 43.578125 25.050781 43.191406 C 25.050781 43.191406 29.671875 31.789062 31.578125 27.058594 C 33.628906 21.941406 36.039062 15.621094 36.460938 12.210938 C 36.75 9.800781 35.460938 7.660156 34.039062 6.621094 C 33.230469 6.011719 32.449219 5.539062 31.460938 5.191406 C 32.398438 5.078125 33.449219 5 34.578125 5 C 38.160156 5 41.039062 6.511719 42.089844 7.148438 C 42.460938 7.738281 43.460938 9.078125 44.878906 9.078125 C 45.328125 9.078125 45.871094 8.980469 46.308594 8.578125 L 46.738281 8.710938 Z M 45.761719 11.738281 "/>
</g>
</svg>
