<?xml version="1.0" encoding="UTF-8"?>
<svg xmlns="http://www.w3.org/2000/svg" xmlns:xlink="http://www.w3.org/1999/xlink" viewBox="0 0 50 50" width="50px" height="50px">
<g id="surface12350815">
<path style=" stroke:none;fill-rule:nonzero;fill:rgb(100%,60.000002%,0%);fill-opacity:1;" d="M 40 2 L 12 2 C 9.242188 2 7 4.242188 7 7 L 7 43 C 7 45.757812 9.242188 48 12 48 L 40 48 C 42.757812 48 45 45.757812 45 43 L 45 7 C 45 4.242188 42.757812 2 40 2 Z M 16.558594 40.914062 L 16.558594 30.964844 L 21.535156 35.941406 Z M 35.261719 40.945312 L 30.496094 40.945312 L 30.496094 23.472656 C 30.496094 23.472656 31.632812 19.289062 16.496094 25.183594 C 16.46875 25.257812 16.46875 9.023438 16.46875 9.023438 L 21.414062 8.996094 L 21.414062 19.394531 C 21.414062 19.394531 35.261719 13.941406 35.261719 23.53125 Z M 33.3125 15.289062 L 28.066406 15.289062 C 29.957031 12.980469 31.664062 9.023438 31.664062 9.023438 L 37.089844 9.023438 C 37.089844 9.023438 36.160156 11.601562 33.3125 15.289062 Z M 33.3125 15.289062 "/>
</g>
</svg>
